<svg xmlns="http://www.w3.org/2000/svg" xmlns:xlink="http://www.w3.org/1999/xlink" viewBox="0 0 2701 2254.21"><defs><style>.cls-1{fill:none;}.cls-2{fill:#4f46e4;}.cls-3{clip-path:url(#clip-path);}.cls-4{fill:#fff;opacity:0.11;}</style><clipPath id="clip-path" transform="translate(439 -0.4)"><path class="cls-1" d="M961.33,0V0h-1.85V0C360.44,8.32.41,160.4.41,160.4V1332h1920V160.4S1560.38,8.32,961.33,0Z"/></clipPath></defs><g id="Layer_2" data-name="Layer 2"><g id="Layer_1-2" data-name="Layer 1"><path class="cls-2" d="M960.93.43v0h-1.86v0C360,8.72,0,160.79,0,160.79V1332.4H1920V160.79S1560,8.72,960.93.43Z" transform="translate(439 -0.4)"/><g class="cls-3"><path class="cls-4" d="M-362.75,535.36c159-53.91,403.07-118.94,704.14-125,345-6.93,524.51,68.41,814.95,99,253.46,26.7,625.17,22.86,1105.66-133l-42.89,1047-2658.11-26Q-400.87,966.37-362.75,535.36Z" transform="translate(439 -0.4)"/><path class="cls-4" d="M-80,776.36c214.22-8.31,527.53,7.67,878,140,76.16,28.76,112.33,47.25,161,67,224.8,91.23,580,154,1142,9,94.09,225.35,184.19,552.79,43,809-366.49,665.06-2139.73,575-2428-118C-321.7,1592.73-413.85,1299.84-80,776.36Z" transform="translate(439 -0.4)"/></g></g></g></svg>