<?xml version="1.0" encoding="utf-8"?>
<!-- Generator: Adobe Illustrator 26.0.3, SVG Export Plug-In . SVG Version: 6.00 Build 0)  -->
<svg version="1.1" id="Layer_1" xmlns="http://www.w3.org/2000/svg" xmlns:xlink="http://www.w3.org/1999/xlink" x="0px" y="0px"
	 viewBox="0 0 685 375" style="enable-background:new 0 0 685 375;" xml:space="preserve">
<style type="text/css">
	.st0{fill:#2E3192;}
	.st1{fill:#0071BC;}
	.st2{fill:#00FFFF;}
	.st3{fill:#9590EF;}
	.st4{fill:#FFFFFF;}
	.st5{fill:#151429;}
	.st6{fill:#2B2951;}
	.st7{fill:none;stroke:#FFFFFF;stroke-width:9;stroke-linecap:round;stroke-linejoin:round;stroke-miterlimit:10;}
	.st8{fill:#FFFFFF;stroke:#FFFFFF;stroke-width:9;stroke-linecap:round;stroke-linejoin:round;stroke-miterlimit:10;}
	.st9{opacity:0.75;fill:#121212;}
</style>
<path class="st0" d="M196.4,0C88,0,0,56.2,0,125.7C0,195,88.3,358.5,196.8,358.5c108.5,0,736.2-152.9,736.2-222.4
	C933,66.8,304.9,0,196.4,0z"/>
<path class="st1" d="M243.5,49.6c-78.4,0-142,40.6-142,90.7c0,50.1,63.7,168.2,142.2,168.2S775.8,198,775.8,147.9
	C775.9,97.8,321.9,49.6,243.5,49.6z"/>
<path class="st2" d="M163.8,71.3c-67.6,0-122.4,35.1-122.4,78.3s55,145,122.5,145c67.6,0,458.6-95.3,458.6-138.5
	C622.7,112.8,231.5,71.3,163.8,71.3z"/>
<path class="st3" d="M116.4,212.9c-20.4-3.1-38.6,4.9-40.5,18c-1.9,13.1-0.4,114.1,20,117.2c20.4,3.1,51.8-92.9,53.9-106.1
	C151.8,229,136.8,216,116.4,212.9z"/>
<path class="st4" d="M115.9,213.2c-3-0.5-6-0.6-8.8-0.6c2.3,4.7,29.5,62.4-10.6,135.7l0.3,0.3c20.4-0.6,50.6-93.3,52.6-106.1
	C151.2,229.4,136.3,216.3,115.9,213.2z"/>
<path class="st3" d="M196,30.4c-89.7,0-162.5,46.5-162.5,103.9c0,57.4,73,192.5,162.8,192.5c89.7,0,162.3-135.1,162.3-192.5
	C358.4,76.9,285.7,30.4,196,30.4z"/>
<path class="st5" d="M234.6,126.5c0,41-50.2,131.9-105.5,125.4c-48.9-5.7-84.6-87.4-84.6-120.2c0-32.8,35.7-63.2,84.5-68.4
	C184.1,57.4,234.6,85.3,234.6,126.5z"/>
<path class="st4" d="M359.7,134.8c2.5-41.9-39.5-79.1-101-96.5c97,146.4-55,324-143.6,252.2c24.1,22.1,52.4,36.6,82.3,36.6
	C287.2,327.3,356.4,192,359.7,134.8z"/>
<path class="st6" d="M234.5,129.7c0,40.1-47.6,128.9-100.1,122.5C88,246.7,54.1,167,54.1,134.9s33.8-61.8,80.1-66.9
	C186.7,62.3,234.5,89.6,234.5,129.7z"/>
<path class="st3" d="M263.9,220.1c-23.2,0-42.1,12.1-42.1,26.9c0,14.9,19,127.2,42.2,127.2c23.2,0,42.1-112.4,42.1-127.2
	C306,232.1,287.2,220.1,263.9,220.1z"/>
<path class="st4" d="M265.9,373.6c22.7-3.5,40.9-112.6,40.9-127.1c0-13.1-14.5-23.9-33.8-26.4l-1.7,0.3
	C271.3,220.3,299.5,248.2,265.9,373.6z"/>
<path class="st7" d="M189,122L162.8,138l23.3,19.9"/>
<path class="st7" d="M86.6,159.8l21.7-21.6L81,124.2"/>
<path class="st8" d="M107.9,184.6H161C161,184.6,131.6,233,107.9,184.6z"/>
<path class="st9" d="M933,136.1C933,66.8,304.9,0,196.4,0C88,0,0,56.2,0,125.7C0,166.4,30.4,239.6,77.5,293
	c2.7,27.4,8.2,53.6,18.4,55.2c6.1,0.9,13.3-7.1,20.3-19.2c24.6,18.1,51.9,29.5,80.5,29.5c11.3,0,28.3-1.7,49.7-4.7
	c5.4,12.2,11.3,20.4,17.6,20.4c7.3,0,14.1-11,20-26.5C490.1,311.7,933,194.4,933,136.1z"/>
</svg>
