<svg width="685" height="375" viewBox="0 0 685 375" fill="none" xmlns="http://www.w3.org/2000/svg">
<path d="M196.414 0.0327148C88.0164 0.0327148 0 56.2438 0 125.696C0 195.019 88.2761 358.459 196.804 358.459C305.331 358.459 933 205.534 933 136.082C933 66.759 304.942 0.0327148 196.414 0.0327148Z" fill="#2E3192"/>
<path d="M243.538 49.6235C165.128 49.6235 101.517 90.2565 101.517 140.366C101.517 190.476 165.258 308.61 243.668 308.61C322.078 308.61 775.791 198.005 775.791 147.896C775.92 97.7859 321.948 49.6235 243.538 49.6235Z" fill="#0071BC"/>
<path d="M163.83 71.3027C96.1949 71.3027 41.4119 106.354 41.4119 149.583C41.4119 192.812 96.4546 294.589 163.96 294.589C231.595 294.589 622.606 199.303 622.606 156.074C622.736 112.844 231.465 71.3027 163.83 71.3027Z" fill="#00FFFF"/>
<path d="M116.446 212.933C96.0651 209.818 77.8906 217.866 75.9434 230.978C73.9961 244.09 75.5539 345.088 95.9353 348.203C116.317 351.319 147.733 255.254 149.81 242.142C151.757 229.031 136.828 216.049 116.446 212.933Z" fill="#9590EF"/>
<path d="M115.927 213.194C112.941 212.674 109.956 212.544 107.1 212.544C109.436 217.218 136.568 274.987 96.4545 348.204L96.7142 348.464C117.096 347.814 147.343 255.125 149.29 242.403C151.238 229.421 136.309 216.309 115.927 213.194Z" fill="white"/>
<path d="M196.025 30.4102C106.321 30.4102 33.493 76.8849 33.493 134.264C33.493 191.644 106.451 326.784 196.284 326.784C285.988 326.784 358.557 191.644 358.557 134.264C358.427 76.8849 285.729 30.4102 196.025 30.4102Z" fill="#9590EF"/>
<path d="M234.581 126.475C234.581 167.497 184.341 258.37 129.039 251.879C80.0976 246.167 44.3977 164.511 44.3977 131.668C44.3977 98.8237 80.0976 68.4463 128.909 63.2536C184.082 57.4118 234.581 85.3226 234.581 126.475Z" fill="#151429"/>
<path d="M359.725 134.784C362.191 92.8526 320.26 55.7247 258.727 38.3291C355.701 184.763 203.684 362.354 115.148 290.565C139.294 312.634 167.595 327.174 197.453 327.174C287.157 327.303 356.35 192.033 359.725 134.784Z" fill="white"/>
<path d="M234.451 129.72C234.451 169.834 186.808 258.629 134.361 252.268C88.0165 246.686 54.134 166.978 54.134 134.913C54.134 102.848 87.8866 73.1199 134.232 68.057C186.678 62.345 234.451 89.6067 234.451 129.72Z" fill="#2B2951"/>
<path d="M263.919 220.074C240.682 220.074 221.859 232.147 221.859 246.946C221.859 261.875 240.812 374.167 264.049 374.167C287.287 374.167 306.11 261.745 306.11 246.946C305.98 232.147 287.157 220.074 263.919 220.074Z" fill="#9590EF"/>
<path d="M265.867 373.648C288.585 370.143 306.759 261.096 306.759 246.557C306.759 233.445 292.22 222.67 273.007 220.204L271.319 220.463C271.319 220.333 299.489 248.244 265.867 373.648Z" fill="white"/>
<path d="M189.007 121.975L162.769 138.041L186.077 157.958" stroke="white" stroke-width="9" stroke-miterlimit="10" stroke-linecap="round" stroke-linejoin="round"/>
<path d="M86.5871 159.817L108.296 138.174L80.9933 124.232" stroke="white" stroke-width="9" stroke-miterlimit="10" stroke-linecap="round" stroke-linejoin="round"/>
<path d="M107.897 184.647H161.038C161.038 184.647 131.604 232.979 107.897 184.647Z" fill="white" stroke="white" stroke-width="9" stroke-miterlimit="10" stroke-linecap="round" stroke-linejoin="round"/>
</svg>
