<svg id="Layer_1" data-name="Layer 1" xmlns="http://www.w3.org/2000/svg" width="1366" height="288" viewBox="0 0 1366 288"><path d="M182.87,226.58c-57.85,0-100.14-82-100.14-116.79,0-37.71,43.92-67.25,100-67.25s100,29.54,100,67.25C282.73,144.63,240.56,226.58,182.87,226.58Zm-.15-165.7c-44.26,0-81.65,22.4-81.65,48.91,0,27,37.15,98.45,81.8,98.45,44.49,0,81.52-71.48,81.52-98.45C264.39,83.28,227,60.88,182.72,60.88Z" style="fill:#fff"/><path d="M336.84,139.53c0-41.12,32-71.57,75.72-71.57,43.49,0,75.71,30.25,75.71,71.57s-32.22,71.56-75.71,71.56C368.87,211.09,336.84,180.65,336.84,139.53Zm119,0c0-26.29-18.58-44.28-43.29-44.28s-43.3,18-43.3,44.28,18.59,44.28,43.3,44.28S455.85,165.82,455.85,139.53Z" style="fill:#eee"/><path d="M624.08,155.54c0,33.41-23.13,54.76-53,54.76-14.23,0-25.7-4.54-33.41-13.83v12.25H508.23V62h30.84v51.6c7.91-8.7,18.78-12.85,32-12.85C601,100.78,624.08,122.13,624.08,155.54Zm-31.23,0c0-18.38-11.67-29.45-27.09-29.45s-27.08,11.07-27.08,29.45S550.34,185,565.76,185,592.85,173.93,592.85,155.54Z" style="fill:#eee"/><path d="M632.38,198.84l10.28-22.14c9.49,6.13,23.92,10.28,37,10.28,14.23,0,19.57-3.76,19.57-9.69,0-17.4-64.25.39-64.25-42.11,0-20.16,18.19-34.4,49.22-34.4,14.63,0,30.84,3.36,40.93,9.29l-10.28,22a61.11,61.11,0,0,0-30.65-7.91c-13.84,0-19.77,4.35-19.77,9.89,0,18.18,64.25.59,64.25,42.5,0,19.77-18.38,33.8-50.21,33.8C660.45,210.3,642.26,205.36,632.38,198.84Z" style="fill:#eee"/><path d="M849.24,164.24H768.78c3,13.25,14.23,21.35,30.44,21.35,11.27,0,19.38-3.36,26.69-10.28l16.41,17.79c-9.88,11.27-24.71,17.2-43.89,17.2-36.77,0-60.69-23.13-60.69-54.76,0-31.83,24.32-54.76,56.74-54.76,31.24,0,55.35,21,55.35,55.16C849.83,158.31,849.44,161.67,849.24,164.24Zm-80.86-18h52.39c-2.17-13.44-12.25-22.14-26.09-22.14C780.64,124.11,770.56,132.61,768.38,146.25Z" style="fill:#eee"/><path d="M934.44,100.78v28.47c-2.57-.2-4.54-.4-6.92-.4-17,0-28.27,9.3-28.27,29.66v50.21H868.41V102.36h29.46v14C905.38,106.12,918,100.78,934.44,100.78Z" style="fill:#eee"/><path d="M1060.17,102.36,1015.3,208.72H983.47L938.79,102.36h31.83l29.45,72.36,30.45-72.36Z" style="fill:#eee"/><path d="M1171.47,164.24H1091c3,13.25,14.23,21.35,30.44,21.35,11.27,0,19.38-3.36,26.69-10.28l16.41,17.79c-9.89,11.27-24.71,17.2-43.89,17.2-36.77,0-60.69-23.13-60.69-54.76,0-31.83,24.32-54.76,56.74-54.76,31.23,0,55.35,21,55.35,55.16C1172.06,158.31,1171.67,161.67,1171.47,164.24Zm-80.86-18H1143c-2.17-13.44-12.26-22.14-26.1-22.14C1102.87,124.11,1092.79,132.61,1090.61,146.25Z" style="fill:#eee"/><path d="M1256.67,100.78v28.47c-2.57-.2-4.55-.4-6.92-.4-17,0-28.27,9.3-28.27,29.66v50.21h-30.84V102.36h29.46v14C1227.61,106.12,1240.26,100.78,1256.67,100.78Z" style="fill:#eee"/></svg>