<svg width="409" height="238" viewBox="0 0 409 238" fill="none" xmlns="http://www.w3.org/2000/svg">
<rect y="64" width="409" height="174" rx="27" fill="#4F46E4"/>
<path d="M138.298 32.7629C130.515 40.5837 125.747 71.4442 125.747 83.3516C125.747 95.2589 130.585 126.119 138.298 133.94C146.011 141.761 191.448 166.703 203.298 166.703C215.148 166.703 260.515 141.761 268.298 133.94C276.081 126.119 280.849 95.2589 280.849 83.3516C280.849 71.4442 276.011 40.5837 268.298 32.7629C260.515 24.9421 215.148 0 203.298 0C191.448 0 146.082 24.9421 138.298 32.7629Z" fill="white"/>
<path d="M139.911 36.1449C132.338 43.7544 127.641 73.8398 127.641 85.4654C127.641 97.0909 132.338 127.176 139.911 134.786C147.484 142.395 191.729 166.703 203.228 166.703C214.727 166.703 258.972 142.395 266.545 134.786C274.118 127.176 278.816 97.0909 278.816 85.4654C278.816 73.8398 274.118 43.7544 266.545 36.1449C259.042 28.5355 214.798 4.22754 203.298 4.22754C191.799 4.22754 147.484 28.5355 139.911 36.1449Z" fill="#CCEDF1"/>
<path d="M152.813 44.0359C146.783 50.0952 143.067 74.0509 143.067 83.3513C143.067 92.6517 146.783 116.607 152.813 122.667C158.843 128.726 194.113 148.102 203.298 148.102C212.484 148.102 247.753 128.726 253.783 122.667C259.814 116.607 263.53 92.6517 263.53 83.3513C263.53 74.0509 259.814 50.0952 253.783 44.0359C247.753 37.9765 212.484 18.6006 203.298 18.6006C194.043 18.6006 158.843 37.9765 152.813 44.0359Z" fill="#96BED3"/>
<path d="M156.108 50.8703C150.499 56.5069 146.993 78.9125 146.993 87.5788C146.993 96.2451 150.499 118.651 156.108 124.287C161.718 129.924 194.673 148.032 203.298 148.032C211.923 148.032 244.808 129.924 250.488 124.287C256.097 118.651 259.603 96.2451 259.603 87.5788C259.603 78.9125 256.097 56.5069 250.488 50.8703C244.878 45.2336 211.923 27.126 203.298 27.126C194.673 27.126 161.788 45.2336 156.108 50.8703Z" fill="white"/>
<path d="M200.844 110.407L187.311 117.946C183.595 119.99 179.177 116.89 179.879 112.662L182.613 95.9636C182.894 94.343 182.333 92.7225 181.211 91.5952L169.571 79.5469C166.696 76.5877 168.379 71.5852 172.446 70.951L188.082 68.5555C189.765 68.2736 191.168 67.2168 191.869 65.6667L198.67 51.0115C200.493 47.0658 206.033 47.0658 207.856 51.0115L214.657 65.6667C215.358 67.2168 216.831 68.2736 218.444 68.5555L234.08 70.951C238.147 71.5852 239.83 76.5877 236.955 79.5469L225.315 91.5952C224.193 92.7225 223.702 94.4135 223.913 95.9636L226.647 112.662C227.349 116.89 222.931 119.99 219.215 117.946L205.682 110.407C204.21 109.562 202.386 109.562 200.844 110.407Z" fill="#96BED3"/>
<path d="M310.859 54.8162C287.65 53.7593 281.83 47.8409 280.779 24.5193C280.779 24.4489 280.708 24.3784 280.638 24.3784C280.568 24.3784 280.498 24.4489 280.498 24.5193C279.446 47.9113 273.556 53.7593 250.277 54.8162C250.207 54.8162 250.137 54.8866 250.137 54.9571C250.137 55.0276 250.207 55.098 250.277 55.098C273.626 56.0844 279.516 62.0029 280.498 85.4653C280.498 85.5358 280.568 85.6062 280.638 85.6062C280.708 85.6062 280.779 85.5358 280.779 85.4653C281.76 62.0733 287.65 56.1549 310.859 55.098C310.929 55.098 311 55.0276 311 54.9571C311 54.8866 310.929 54.8162 310.859 54.8162Z" fill="white"/>
<path d="M162.84 151.977C128.973 150.498 120.348 141.831 118.876 107.8C118.876 107.659 118.736 107.589 118.595 107.589C118.455 107.589 118.315 107.73 118.315 107.8C116.842 141.902 108.218 150.498 74.2104 151.977C74.0701 151.977 74 152.118 74 152.259C74 152.4 74.1402 152.541 74.2104 152.541C108.288 154.021 116.912 162.616 118.385 196.859C118.385 197 118.525 197.07 118.665 197.07C118.806 197.07 118.946 196.929 118.946 196.859C120.418 162.757 128.973 154.091 162.84 152.541C162.98 152.541 163.05 152.4 163.05 152.259C163.05 152.048 162.91 151.977 162.84 151.977Z" fill="white"/>
</svg>
