<svg xmlns="http://www.w3.org/2000/svg" viewBox="0 0 300 273.65"><defs><style>.cls-1{fill:#b3b3b3;}.cls-2{fill:#f2f2f2;}.cls-3{fill:#202225;}</style></defs><g id="Layer_2" data-name="Layer 2"><g id="Layer_1-2" data-name="Layer 1"><path class="cls-1" d="M19.88,144.22c-3.66,14.06-27,105.51-8.79,113.25,15.84,6.72,55.34-52.75,66.11-69.33"/><path class="cls-1" d="M278.78,144.22c3.66,14.06,27,105.51,8.78,113.25-15.83,6.72-55.33-52.75-66.1-69.33"/><path class="cls-2" d="M300,95.92c0,53-66.93,177.73-149.77,177.73S0,148.89,0,95.92,67.16,0,150,0,300,42.94,300,95.92Z"/><path class="cls-3" d="M256.09,86.33c0,37.48-47.36,125.76-106,125.76S43.82,123.81,43.82,86.33,91.34,18.46,150,18.46,256.09,48.85,256.09,86.33Z"/></g></g></svg>